        <svg
            width="64"
            height="64"
            viewBox="0 0 64 64"
            fill="none"
            xmlns="http://www.w3.org/2000/svg"
          >
            <path
              d="M48 0C56.8366 0 64 7.16344 64 16V48C64 56.8366 56.8366 64 48 64H16C7.16344 64 0 56.8366 0 48V16C0 7.16344 7.16344 0 16 0H48Z"
              fill="url(#paint0_linear_1_374)"
            />
            <g clip-path="url(#clip0_1_374)">
              <g clip-path="url(#clip1_1_374)">
                <path
                  d="M32 31C30.4087 31 28.8826 30.3679 27.7574 29.2426C26.6321 28.1174 26 26.5913 26 25C26 23.4087 26.6321 21.8826 27.7574 20.7574C28.8826 19.6321 30.4087 19 32 19C33.5913 19 35.1174 19.6321 36.2426 20.7574C37.3679 21.8826 38 23.4087 38 25C38 26.5913 37.3679 28.1174 36.2426 29.2426C35.1174 30.3679 33.5913 31 32 31ZM31.3016 35.8375L30.4297 34.3844C30.1297 33.8828 30.4906 33.25 31.0719 33.25H32H32.9234C33.5047 33.25 33.8656 33.8875 33.5656 34.3844L32.6938 35.8375L34.2594 41.6453L35.9469 34.7594C36.0406 34.3797 36.4062 34.1312 36.7859 34.2297C40.0719 35.0547 42.5 38.0266 42.5 41.5609C42.5 42.3578 41.8531 43 41.0609 43H34.8828C34.7844 43 34.6953 42.9812 34.6109 42.9484L34.625 43H29.375L29.3891 42.9484C29.3047 42.9812 29.2109 43 29.1172 43H22.9391C22.1469 43 21.5 42.3531 21.5 41.5609C21.5 38.0219 23.9328 35.05 27.2141 34.2297C27.5938 34.1359 27.9594 34.3844 28.0531 34.7594L29.7406 41.6453L31.3062 35.8375H31.3016Z"
                  fill="white"
                />
              </g>
            </g>
            <defs>
              <linearGradient
                id="paint0_linear_1_374"
                x1="0"
                y1="32"
                x2="64"
                y2="32"
                gradientUnits="userSpaceOnUse"
              >
                <stop stop-color="#667EEA" />
                <stop offset="1" stop-color="#764BA2" />
              </linearGradient>
              <clipPath id="clip0_1_374">
                <rect
                  width="21"
                  height="24"
                  fill="white"
                  transform="translate(21.5 19)"
                />
              </clipPath>
              <clipPath id="clip1_1_374">
                <path d="M21.5 19H42.5V43H21.5V19Z" fill="white" />
              </clipPath>
            </defs>
          </svg>