        <svg
            width="65"
            height="64"
            viewBox="0 0 70 64"
            fill="none"
            xmlns="http://www.w3.org/2000/svg"
          >
            <path
              d="M48.3281 0C57.1647 0 64.3281 7.16344 64.3281 16V48C64.3281 56.8366 57.1647 64 48.3281 64H16.3281C7.49157 64 0.328125 56.8366 0.328125 48V16C0.328125 7.16344 7.49157 0 16.3281 0H48.3281Z"
              fill="url(#paint0_linear_1_377)"
            />

            <g clip-path="url(#clip0_1_377)">
              <g clip-path="url(#clip1_1_377)">
                <path
                  d="M32.3281 19C35.5107 19 38.563 20.2643 40.8134 22.5147C43.0638 24.7652 44.3281 27.8174 44.3281 31C44.3281 34.1826 43.0638 37.2348 40.8134 39.4853C38.563 41.7357 35.5107 43 32.3281 43C29.1455 43 26.0933 41.7357 23.8428 39.4853C21.5924 37.2348 20.3281 34.1826 20.3281 31C20.3281 27.8174 21.5924 24.7652 23.8428 22.5147C26.0933 20.2643 29.1455 19 32.3281 19ZM31.2031 24.625V31C31.2031 31.375 31.3906 31.7266 31.7047 31.9375L36.2047 34.9375C36.7203 35.2844 37.4188 35.1437 37.7656 34.6234C38.1125 34.1031 37.9719 33.4094 37.4516 33.0625L33.4531 30.4V24.625C33.4531 24.0016 32.9516 23.5 32.3281 23.5C31.7047 23.5 31.2031 24.0016 31.2031 24.625Z"
                  fill="white"
                />
              </g>
            </g>
            <defs>
              <linearGradient
                id="paint0_linear_1_377"
                x1="0.328125"
                y1="32"
                x2="64.3281"
                y2="32"
                gradientUnits="userSpaceOnUse"
              >
                <stop stop-color="#F093FB" />
                <stop offset="1" stop-color="#667EEA" />
              </linearGradient>
              <clipPath id="clip0_1_377">
                <rect
                  width="24"
                  height="24"
                  fill="white"
                  transform="translate(20.3281 19)"
                />
              </clipPath>
              <clipPath id="clip1_1_377">
                <path d="M20.3281 19H44.3281V43H20.3281V19Z" fill="white" />
              </clipPath>
            </defs>
          </svg>