          <svg
            width="65"
            height="64"
            viewBox="0 0 65 64"
            fill="none"
            xmlns="http://www.w3.org/2000/svg"
          >
            <path
              d="M48.6562 0C57.4928 0 64.6562 7.16344 64.6562 16V48C64.6562 56.8366 57.4928 64 48.6562 64H16.6562C7.81969 64 0.65625 56.8366 0.65625 48V16C0.65625 7.16344 7.81969 0 16.6562 0H48.6562Z"
              fill="url(#paint0_linear_1_380)"
            />
            <g clip-path="url(#clip0_1_380)">
              <g clip-path="url(#clip1_1_380)">
                <path
                  d="M23.6562 22C23.6562 21.1703 22.9859 20.5 22.1562 20.5C21.3266 20.5 20.6562 21.1703 20.6562 22V37.75C20.6562 39.8219 22.3344 41.5 24.4062 41.5H43.1562C43.9859 41.5 44.6562 40.8297 44.6562 40C44.6562 39.1703 43.9859 38.5 43.1562 38.5H24.4062C23.9938 38.5 23.6562 38.1625 23.6562 37.75V22ZM42.7156 26.0594C43.3016 25.4734 43.3016 24.5219 42.7156 23.9359C42.1297 23.35 41.1781 23.35 40.5922 23.9359L35.6562 28.8766L32.9656 26.1859C32.3797 25.6 31.4281 25.6 30.8422 26.1859L25.5922 31.4359C25.0063 32.0219 25.0063 32.9734 25.5922 33.5594C26.1781 34.1453 27.1297 34.1453 27.7156 33.5594L31.9062 29.3734L34.5969 32.0641C35.1828 32.65 36.1344 32.65 36.7203 32.0641L42.7203 26.0641L42.7156 26.0594Z"
                  fill="white"
                />
              </g>
            </g>
            <defs>
              <linearGradient
                id="paint0_linear_1_380"
                x1="0.65625"
                y1="32"
                x2="64.6562"
                y2="32"
                gradientUnits="userSpaceOnUse"
              >
                <stop stop-color="#764BA2" />
                <stop offset="1" stop-color="#F093FB" />
              </linearGradient>
              <clipPath id="clip0_1_380">
                <rect
                  width="24"
                  height="24"
                  fill="white"
                  transform="translate(20.6562 19)"
                />
              </clipPath>
              <clipPath id="clip1_1_380">
                <path d="M20.6562 19H44.6562V43H20.6562V19Z" fill="white" />
              </clipPath>
            </defs>
          </svg>